<?xml version="1.0" encoding="utf-8"?>
<!-- Generator: Adobe Illustrator 25.3.1, SVG Export Plug-In . SVG Version: 6.00 Build 0)  -->
<svg version="1.1" id="Layer_1" xmlns="http://www.w3.org/2000/svg" xmlns:xlink="http://www.w3.org/1999/xlink" x="0px" y="0px"
	 viewBox="0 0 416.5 409.6" style="enable-background:new 0 0 416.5 409.6;" xml:space="preserve">
<style type="text/css">
	.st0{fill:url(#SVGID_1_);}
	.st1{fill:url(#SVGID_2_);}
	.st2{fill:url(#SVGID_3_);}
	.st3{fill:url(#SVGID_4_);}
</style>
<g>
	
		<linearGradient id="SVGID_1_" gradientUnits="userSpaceOnUse" x1="-2940.5701" y1="268.5655" x2="-2921.4065" y2="309.0591" gradientTransform="matrix(8.3322 0 0 8.3322 24602.6543 -2259.1335)">
		<stop  offset="0" style="stop-color:#A0CBFF"/>
		<stop  offset="0.394" style="stop-color:#A0CBFE"/>
		<stop  offset="0.583" style="stop-color:#8EC2FC"/>
		<stop  offset="0.784" style="stop-color:#83BCFB"/>
		<stop  offset="1" style="stop-color:#7FBAFB"/>
	</linearGradient>
	<path class="st0" d="M0,0h416.5v409.6H0V0z"/>
	
		<linearGradient id="SVGID_2_" gradientUnits="userSpaceOnUse" x1="-2933.7676" y1="275.6245" x2="-2922.936" y2="311.619" gradientTransform="matrix(8.3322 0 0 8.3322 24602.6543 -2259.1335)">
		<stop  offset="0" style="stop-color:#090058"/>
		<stop  offset="1" style="stop-color:#070033"/>
	</linearGradient>
	<path class="st1" d="M33.1,32.6h350.3V377H33.1V32.6z"/>
	<g>
		
			<linearGradient id="SVGID_3_" gradientUnits="userSpaceOnUse" x1="-2946.5303" y1="270.7202" x2="-2927.3669" y2="311.2132" gradientTransform="matrix(8.3322 0 0 8.3322 24602.6543 -2259.1335)">
			<stop  offset="0" style="stop-color:#A0CBFF"/>
			<stop  offset="0.394" style="stop-color:#A0CBFE"/>
			<stop  offset="0.583" style="stop-color:#8EC2FC"/>
			<stop  offset="0.784" style="stop-color:#83BCFB"/>
			<stop  offset="1" style="stop-color:#7FBAFB"/>
		</linearGradient>
		<path class="st2" d="M100.7,115.4c0,0,26.3-0.7,48-0.7c21.9,0,37.5,5.2,48,14.2c10,8.6,16.8,23.1,16.8,39.8s-5.1,30.2-14.5,39.8
			c-12.1,12.3-26.2,19.6-50.3,20.6c-6.7,0.3-12.8,0.3-12.8,0.3v54h-35.2L100.7,115.4L100.7,115.4z M135.9,199.5
			c3.8,0.4,6.2,0.2,11.9,0.1c18.9-0.2,30.5-11.7,30.5-29.1c0-15.6-9.6-28.4-27.7-29.1c-7.2-0.3-14.7,0-14.7,0V199.5z"/>
		
			<linearGradient id="SVGID_4_" gradientUnits="userSpaceOnUse" x1="-2935.6147" y1="265.4329" x2="-2916.3755" y2="306.0865" gradientTransform="matrix(8.3322 0 0 8.3322 24602.6543 -2259.1335)">
			<stop  offset="0" style="stop-color:#A0CBFF"/>
			<stop  offset="0.394" style="stop-color:#A0CBFE"/>
			<stop  offset="0.583" style="stop-color:#8EC2FC"/>
			<stop  offset="0.784" style="stop-color:#83BCFB"/>
			<stop  offset="1" style="stop-color:#7FBAFB"/>
		</linearGradient>
		<path class="st3" d="M226.9,245.8c7.1,4.4,23.8,10.9,35.2,10.9c11.7,0,16.5-4.1,16.5-10.5c0-6.4-3.8-13.2-18.3-18
			c-25.6-8.7-35.5-19.2-35.2-33.8c0-23.6,19.8-41.3,50.4-41.3c14.4,0,26,4.7,33.6,8.6V190c-5.6-3.1-21.7-10-32.3-10
			c-9.4,0-14.7,3.8-14.7,10.2c0,5.9,4.8,9,20,14.4c23.6,8.2,33.5,20.2,33.7,38.7c0,23.3-18,41.9-53.7,40.8
			c-12.3-0.4-25.9-5.2-35.2-10.4L226.9,245.8L226.9,245.8z"/>
	</g>
</g>
</svg>
