<?xml version="1.0" encoding="utf-8"?>
<!-- Generator: Adobe Illustrator 25.3.1, SVG Export Plug-In . SVG Version: 6.00 Build 0)  -->
<svg version="1.1" id="Layer_1" xmlns="http://www.w3.org/2000/svg" xmlns:xlink="http://www.w3.org/1999/xlink" x="0px" y="0px"
	 viewBox="0 0 418.3 409.6" style="enable-background:new 0 0 418.3 409.6;" xml:space="preserve">
<style type="text/css">
	.st0{fill:url(#SVGID_1_);}
	.st1{fill:url(#SVGID_2_);}
</style>
<g>
	
		<linearGradient id="SVGID_1_" gradientUnits="userSpaceOnUse" x1="-2702.8455" y1="4.9594" x2="-2781.426" y2="83.5398" gradientTransform="matrix(5.2166 0 0 5.2166 14515.7109 -28.0084)">
		<stop  offset="0" style="stop-color:#FFAA2A"/>
		<stop  offset="1" style="stop-color:#FFC06C"/>
	</linearGradient>
	<path class="st0" d="M0,0h418.3v409.6H0V0z"/>
	
		<linearGradient id="SVGID_2_" gradientUnits="userSpaceOnUse" x1="-2742.4678" y1="11.4134" x2="-2742.4678" y2="77.4445" gradientTransform="matrix(5.2166 0 0 5.2166 14515.7109 -28.0084)">
		<stop  offset="0" style="stop-color:#251200"/>
		<stop  offset="1" style="stop-color:#000000"/>
	</linearGradient>
	<path class="st1" d="M152.6,208.5h37.1l-18.5-71.9L152.6,208.5z M31.6,32.1v345.6h355.5V32.1H31.6z M210,287.4l-13.6-46.7h-50.2
		l-13.6,46.7H98.3l48.4-165.2v-18.1h46.1L248,287.4H210z M301.3,287.4h-37.1V148h37.1V287.4z M283,131.2c-10.6,0-19.2-8.5-19.2-19
		c0-10.5,8.6-19,19.2-19s19.2,8.5,19.2,19C302.2,122.7,293.6,131.2,283,131.2z"/>
</g>
</svg>
