<?xml version="1.0" encoding="utf-8"?>
<!-- Generator: Adobe Illustrator 25.3.1, SVG Export Plug-In . SVG Version: 6.00 Build 0)  -->
<svg version="1.1" id="Layer_1" xmlns="http://www.w3.org/2000/svg" xmlns:xlink="http://www.w3.org/1999/xlink" x="0px" y="0px"
	 viewBox="0 0 420.1 409.6" style="enable-background:new 0 0 420.1 409.6;" xml:space="preserve">
<style type="text/css">
	.st0{fill-rule:evenodd;clip-rule:evenodd;fill:#1F0040;}
	.st1{fill-rule:evenodd;clip-rule:evenodd;fill:#D291FF;}
</style>
<g>
	<path class="st0" d="M17.5,17.5h385.1v374.6H17.5V17.5z"/>
	<g>
		<path class="st1" d="M0,0v409.6h420.1V0H0z M17.5,17.5h385.1v374.6H17.5V17.5z"/>
		<path class="st1" d="M118.7,231.9l-13.9,52.3c-0.3,1.4-0.9,2-2.6,2H76.6c-1.7,0-2-0.6-1.7-2.6l49.7-173.9
			c0.9-3.2,1.4-5.7,1.7-14.3c0-1.2,0.6-1.7,1.4-1.7h36.7c1.2,0,1.7,0.3,2,1.7l55.7,188.5c0.3,1.4,0,2.3-1.4,2.3h-28.9
			c-1.4,0-2.3-0.5-2.6-1.7l-14.4-52.6L118.7,231.9z M167.9,203.5c-4.9-19.4-16.8-61.8-21.1-82.3h-0.3c-3.8,20.5-13.2,55.1-20.5,82.3
			L167.9,203.5z M261.7,221.4c0.3,23.7,11.6,39.6,38.1,39.6c10.4,0,19.3-1.4,28.5-5.4c1.2-0.6,2-0.3,2,1.2v22c0,1.7-0.6,2.6-1.7,3.5
			c-9.2,4.6-20.8,6.6-35.2,6.6c-46.2,0-63.5-34.1-63.5-72.2c0-41.3,21.4-75.1,58.9-75.1c38.1,0,51.4,32.1,51.4,58.1
			c0,8.4-0.6,15.3-1.4,18.5c-0.3,1.4-0.9,2-2.3,2.2c-3.5,0.6-13.9,1.2-29.2,1.2L261.7,221.4L261.7,221.4z M297.2,197.4
			c9,0,12.1,0,13-0.3c0-1.2,0.3-2.1,0.3-3c0-9.5-4.6-27-22.8-27c-16.8,0-24,14.7-25.7,30.3L297.2,197.4z"/>
	</g>
</g>
</svg>
