<?xml version="1.0" encoding="utf-8"?>
<!-- Generator: Adobe Illustrator 25.3.1, SVG Export Plug-In . SVG Version: 6.00 Build 0)  -->
<svg version="1.1" id="Layer_1" xmlns="http://www.w3.org/2000/svg" xmlns:xlink="http://www.w3.org/1999/xlink" x="0px" y="0px"
	 viewBox="0 0 668.9 409.6" style="enable-background:new 0 0 668.9 409.6;" xml:space="preserve">
<path d="M4.5,259.2v-74.7h93.2v-4.4H4.5V112h99.1v-4.4H0.1v155.9h104.4v-4.4H4.5L4.5,259.2z M188.6,151.3l-38.7,50.9l-37.8-50.9
	h-5.7l40.8,54.1l-44.8,58.1h5.2l42.1-54.8l42.4,54.8h5.5l-45-58.1l41-54.2H188.6L188.6,151.3z M210.8,302v-69.9h0.4
	c2.6,10.2,7.8,18.4,15.5,24.6c7.7,6.2,17.6,9.3,29.5,9.3c7.7,0,14.6-1.6,20.5-4.7c6-3.1,11-7.4,14.9-12.8c4-5.4,7.1-11.6,9.2-18.8
	c2.1-7.1,3.2-14.6,3.2-22.5c0-8.4-1.1-16.2-3.3-23.3c-2.2-7.1-5.4-13.3-9.5-18.6c-4.1-5.2-9.2-9.3-15.1-12.2
	c-5.9-2.9-12.6-4.4-20-4.4c-5.7,0-11,0.9-15.8,2.5s-9.2,4-13,7.1c-3.8,3.1-7.1,6.7-9.8,10.8c-2.8,4.1-4.9,8.7-6.3,13.7h-0.4v-31.5
	h-4.4V302H210.8L210.8,302z M256.2,261.8c-13.7,0-24.7-4.7-33-14.1c-8.3-9.4-12.4-22.9-12.4-40.5c0-7.3,1-14.2,3-20.7
	c2-6.5,5-12.3,8.8-17.3c3.8-4.9,8.6-8.9,14.3-11.8c5.7-2.9,12.1-4.4,19.2-4.4c7.3,0,13.7,1.5,19.1,4.4c5.5,2.9,10,6.9,13.5,11.9
	c3.6,5,6.3,10.8,8.1,17.3c1.8,6.5,2.8,13.4,2.8,20.6c0,6.5-0.9,13-2.5,19.5s-4.3,12.3-7.7,17.5c-3.5,5.2-8,9.4-13.4,12.7
	C270.6,260.2,264,261.8,256.2,261.8L256.2,261.8z M328.1,263.5V200c0-6.1,0.9-12.1,2.6-17.9c1.8-5.8,4.5-11,8.1-15.4
	c3.7-4.5,8.3-7.9,13.9-10.5s12.2-3.6,20-3.2v-4.4c-6.7-0.1-12.6,0.6-17.6,2.2c-5,1.6-9.3,3.8-13,6.5c-3.7,2.8-6.5,6-8.7,9.7
	c-2.2,3.7-3.8,7.7-4.8,11.9h-0.4v-27.8h-4.4v112.2H328.1L328.1,263.5z M378.1,208.3H472c0.3-7.7-0.5-15.1-2.3-22.3
	c-1.8-7.1-4.7-13.5-8.7-19c-4-5.6-9.2-10-15.5-13.3c-6.3-3.4-13.9-5.1-22.6-5.1c-6.3,0-12.4,1.3-18.4,3.9c-6,2.6-11.2,6.5-15.7,11.5
	c-4.5,5-8.2,11.1-10.9,18.5c-2.8,7.3-4.1,15.6-4.1,24.9c0,8.3,0.9,16,2.8,23.2c1.9,7.2,4.8,13.5,8.7,18.8c3.9,5.3,9,9.4,15.2,12.3
	c6.2,2.9,13.7,4.3,22.4,4.1c12.8,0,23.6-3.6,32.3-10.8c8.7-7.2,13.9-17.4,15.5-30.5h-4.4c-1.9,12.4-6.7,21.6-14.5,27.8
	c-7.8,6.2-17.6,9.3-29.4,9.3c-8,0-14.8-1.4-20.3-4.1c-5.6-2.8-10.1-6.5-13.5-11.3c-3.5-4.8-6.1-10.4-7.7-16.9
	C379.2,222.9,378.3,215.9,378.1,208.3L378.1,208.3z M467.6,203.9h-89.5c0.4-7.9,1.9-14.9,4.4-21.2c2.5-6.3,5.7-11.6,9.7-16
	c4-4.5,8.7-7.8,14-10.2c5.3-2.3,11-3.5,17.1-3.5c7.3,0,13.7,1.3,19.2,4c5.6,2.7,10.2,6.4,13.9,11c3.7,4.6,6.5,10.1,8.4,16.3
	C466.6,190.6,467.6,197.1,467.6,203.9L467.6,203.9z M562.6,184.5h4.4c0-12.5-3.7-21.6-10.9-27.3c-7.3-5.7-17.2-8.5-29.7-8.5
	c-7,0-12.9,0.9-17.7,2.6c-4.8,1.8-8.7,4-11.8,6.8c-3,2.8-5.2,5.8-6.5,9.2c-1.3,3.3-1.9,6.5-1.9,9.6c0,6.1,1.1,11,3.3,14.6
	c2.2,3.7,5.6,6.5,10.2,8.5c3.2,1.5,6.8,2.8,10.9,3.9c4.1,1.2,8.8,2.4,14.2,3.7c4.8,1.2,9.5,2.3,14.2,3.5c4.6,1.2,8.8,2.8,12.3,4.7
	c3.6,1.9,6.5,4.5,8.7,7.5c2.3,3,3.4,7.1,3.4,12c0,4.8-1.1,8.9-3.4,12.2c-2.2,3.3-5.2,6.1-8.6,8.2c-3.5,2.1-7.4,3.7-11.7,4.6
	c-4.3,0.9-8.5,1.4-12.6,1.4c-13.2,0-23.4-2.9-30.5-8.8c-7.1-5.9-10.6-15.2-10.6-27.8h-4.4c0,14.1,3.8,24.4,11.5,31
	c7.6,6.5,19,9.8,34,9.8c4.8,0,9.6-0.6,14.5-1.7c4.9-1.1,9.3-2.9,13.1-5.4c3.8-2.4,7-5.7,9.4-9.6c2.4-3.9,3.6-8.7,3.6-14.4
	c0-5.4-1-9.8-3.2-13.1c-2.1-3.4-4.9-6.1-8.3-8.3c-3.4-2.2-7.3-3.9-11.6-5.1c-4.3-1.2-8.6-2.5-13-3.6c-5.4-1.4-10.7-2.8-16-4.1
	c-4.6-1.2-8.8-2.6-12.8-4.1c-3.8-1.6-6.8-3.9-9.1-6.9s-3.4-7.3-3.4-12.8c0-1,0.3-2.8,0.9-5.5c0.6-2.6,1.9-5.3,4.1-8
	c2.2-2.7,5.6-5.1,10.1-7.2c4.5-2.1,10.7-3.2,18.6-3.2c5.4,0,10.3,0.6,14.8,1.8c4.5,1.2,8.3,3,11.5,5.6c3.2,2.6,5.7,5.8,7.4,9.7
	C561.7,174,562.6,178.8,562.6,184.5L562.6,184.5z M663.7,184.5h4.4c0-12.5-3.7-21.6-10.9-27.3c-7.3-5.7-17.2-8.5-29.7-8.5
	c-7,0-12.9,0.9-17.7,2.6c-4.8,1.8-8.7,4-11.8,6.8c-3,2.8-5.2,5.8-6.5,9.2c-1.3,3.4-1.9,6.5-1.9,9.6c0,6.1,1.1,11,3.3,14.6
	c2.2,3.7,5.6,6.5,10.2,8.5c3.2,1.5,6.8,2.8,10.9,3.9c4.1,1.2,8.8,2.4,14.2,3.7c4.8,1.2,9.5,2.3,14.2,3.5s8.8,2.8,12.3,4.7
	c3.6,1.9,6.5,4.5,8.7,7.5c2.3,3,3.4,7.1,3.4,12c0,4.8-1.1,8.9-3.4,12.2c-2.2,3.3-5.2,6.1-8.6,8.2c-3.5,2.1-7.4,3.7-11.7,4.6
	c-4.3,0.9-8.5,1.4-12.6,1.4c-13.2,0-23.4-2.9-30.5-8.8c-7.1-5.9-10.6-15.2-10.6-27.8H585c0,14.1,3.8,24.4,11.5,31
	c7.6,6.5,19,9.8,34,9.8c4.8,0,9.6-0.6,14.5-1.7c4.9-1.1,9.3-2.9,13.1-5.4c3.8-2.4,7-5.7,9.4-9.6c2.4-3.9,3.6-8.7,3.6-14.4
	c0-5.4-1-9.8-3.2-13.1c-2.1-3.4-4.9-6.1-8.3-8.3c-3.4-2.2-7.3-3.9-11.6-5.1c-4.3-1.2-8.6-2.5-13-3.6c-5.4-1.4-10.7-2.8-16-4.1
	c-4.6-1.2-8.8-2.6-12.8-4.1c-3.8-1.6-6.8-3.9-9.1-6.9c-2.3-3-3.4-7.3-3.4-12.8c0-1,0.3-2.8,0.9-5.5c0.6-2.6,1.9-5.3,4.1-8
	c2.2-2.7,5.6-5.1,10.1-7.2c4.5-2.1,10.7-3.2,18.6-3.2c5.4,0,10.3,0.6,14.8,1.8c4.5,1.2,8.3,3,11.5,5.6c3.2,2.5,5.7,5.8,7.4,9.7
	C662.8,174,663.7,178.8,663.7,184.5L663.7,184.5z"/>
</svg>
