<?xml version="1.0" encoding="utf-8"?>
<!-- Generator: Adobe Illustrator 25.3.1, SVG Export Plug-In . SVG Version: 6.00 Build 0)  -->
<svg version="1.1" id="Layer_1" xmlns="http://www.w3.org/2000/svg" xmlns:xlink="http://www.w3.org/1999/xlink" x="0px" y="0px"
	 viewBox="0 0 290.2 409.6" style="enable-background:new 0 0 290.2 409.6;" xml:space="preserve">
<style type="text/css">
	.st0{fill:#E44D26;}
	.st1{fill:#F16529;}
	.st2{fill:#EBEBEB;}
	.st3{fill:#FFFFFF;}
</style>
<g>
	<polygon class="st0" points="26.4,376.7 0,80.5 290.2,80.5 263.8,376.7 144.9,409.6 	"/>
	<polygon class="st1" points="145.1,384.4 241.1,357.8 263.7,104.7 145.1,104.7 	"/>
	<polygon class="st2" points="145.1,214.6 97,214.6 93.7,177.4 145.1,177.4 145.1,141 145,141 54,141 54.9,150.8 63.8,250.9 
		145.1,250.9 	"/>
	<polygon class="st2" points="145.1,308.9 144.9,309 104.5,298 101.9,269.1 82.2,269.1 65.4,269.1 70.5,326.1 144.9,346.8 
		145.1,346.7 	"/>
	<path d="M27,0h18.5v18.2h16.9V0h18.5v55.2H62.3V36.7H45.5v18.5H27L27,0L27,0z"/>
	<path d="M105.1,18.3H88.8V0h51v18.3h-16.3v36.9h-18.5L105.1,18.3L105.1,18.3z"/>
	<path d="M147.9,0h19.3L179,19.4L190.8,0h19.3v55.2h-18.4V27.9L179,47.5h-0.3L166,27.9v27.4h-18.1V0z"/>
	<path d="M219.3,0h18.5v37h26v18.3h-44.4V0z"/>
	<polygon class="st3" points="145,214.6 145,250.9 189.7,250.9 185.5,298 145,309 145,346.7 219.4,326.1 220,320 228.5,224.3 
		229.4,214.6 219.6,214.6 	"/>
	<polygon class="st3" points="145,141 145,163.6 145,177.3 145,177.4 232.6,177.4 232.6,177.4 232.7,177.4 233.4,169.2 235.1,150.8 
		236,141 	"/>
</g>
</svg>
