<?xml version="1.0" encoding="utf-8"?>
<!-- Generator: Adobe Illustrator 25.3.1, SVG Export Plug-In . SVG Version: 6.00 Build 0)  -->
<svg version="1.1" id="Layer_1" xmlns="http://www.w3.org/2000/svg" xmlns:xlink="http://www.w3.org/1999/xlink" x="0px" y="0px"
	 viewBox="0 0 409.6 409.6" style="enable-background:new 0 0 409.6 409.6;" xml:space="preserve">
<style type="text/css">
	.st0{fill:#F0DB4F;}
</style>
<g>
	<path class="st0" d="M0,0h409.6v409.6H0V0z"/>
	<path d="M376.1,311.9c-3-18.7-15.2-34.4-51.3-49c-12.5-5.8-26.5-9.9-30.7-19.4c-1.5-5.5-1.7-8.6-0.7-12
		c2.7-10.9,15.7-14.3,25.9-11.1c6.6,2.2,12.9,7.3,16.7,15.5c17.7-11.4,17.6-11.4,30-19.2c-4.5-7-6.9-10.2-9.9-13.2
		c-10.6-11.9-25.1-18-48.3-17.5c-4,0.5-8.1,1.1-12.1,1.6c-11.6,2.9-22.6,9-29,17.1c-19.4,22-13.9,60.5,9.7,76.4
		c23.2,17.4,57.4,21.4,61.8,37.7c4.2,20-14.7,26.4-33.5,24.1c-13.9-2.9-21.6-9.9-29.9-22.7c-15.3,8.9-15.3,8.9-31.1,17.9
		c3.7,8.2,7.7,11.9,13.9,19c29.7,30.1,103.9,28.6,117.2-16.9C375.4,338.4,379,328,376.1,311.9z M222.7,188.3h-38.3
		c0,33.1-0.2,66-0.2,99.1c0,21.1,1.1,40.4-2.3,46.3c-5.6,11.6-20.1,10.2-26.7,7.9c-6.7-3.3-10.2-8-14.1-14.7
		c-1.1-1.9-1.9-3.4-2.2-3.5c-10.4,6.3-20.8,12.7-31.1,19.1c5.2,10.6,12.8,19.9,22.6,25.9c14.6,8.8,34.2,11.4,54.7,6.7
		c13.4-3.9,24.9-12,30.9-24.2c8.7-16.1,6.9-35.5,6.8-57.1C222.9,258.6,222.7,223.5,222.7,188.3L222.7,188.3z"/>
</g>
</svg>
