<?xml version="1.0" encoding="utf-8"?>
<!-- Generator: Adobe Illustrator 25.3.1, SVG Export Plug-In . SVG Version: 6.00 Build 0)  -->
<svg version="1.1" id="Layer_1" xmlns="http://www.w3.org/2000/svg" xmlns:xlink="http://www.w3.org/1999/xlink" x="0px" y="0px"
	 viewBox="0 0 200 187" style="enable-background:new 0 0 200 187;" xml:space="preserve">
<style type="text/css">
	.st0{filter:url(#Adobe_OpacityMaskFilter);}
	.st1{mask:url(#mask0_1_);}
	.st2{clip-path:url(#SVGID_3_);}
</style>
<defs>
	<filter id="Adobe_OpacityMaskFilter" filterUnits="userSpaceOnUse" x="-2" y="-2" width="201.2" height="189.1">
		<feColorMatrix  type="matrix" values="1 0 0 0 0  0 1 0 0 0  0 0 1 0 0  0 0 0 1 0"/>
	</filter>
</defs>
<mask maskUnits="userSpaceOnUse" x="-2" y="-2" width="201.2" height="189.1" id="mask0_1_">
	<path class="st0" d="M190.3,36.5c16.3,25.6,11,66.3-8,97.7c-19,31.4-51.5,53.4-82.1,52.2c-30.6-1.1-59.2-25.3-78.5-57
		C2.5,97.9-7.5,59.1,6.7,34.5C21,10.1,59.7-0.1,98,0C136.2,0.3,174.2,10.9,190.3,36.5z"/>
</mask>
<g class="st1">
	<path d="M190.3,36.5c16.3,25.6,12.3,63.2-29.4,91.6c-48,32.7-39.6,60.8-76.9,59S-7.5,59.1,6.7,34.5C21,10.1,39.3,21.4,86.4,29
		C105.4,32,163-5.1,190.3,36.5z"/>
	<g>
		<defs>
			<polygon id="SVGID_1_" points="1,1 2,1 1,2 			"/>
		</defs>
		<defs>
			<polygon id="SVGID_2_" points="-1,-1 -2,-1 -1,-2 			"/>
		</defs>
		<clipPath id="SVGID_3_">
			<use xlink:href="#SVGID_1_"  style="overflow:visible;"/>
		</clipPath>
		<clipPath id="SVGID_4_" class="st2">
			<use xlink:href="#SVGID_2_"  style="overflow:visible;"/>
		</clipPath>
	</g>
</g>
</svg>
