<?xml version="1.0" encoding="utf-8"?>
<!-- Generator: Adobe Illustrator 25.3.1, SVG Export Plug-In . SVG Version: 6.00 Build 0)  -->
<svg version="1.1" id="Layer_1" xmlns="http://www.w3.org/2000/svg" xmlns:xlink="http://www.w3.org/1999/xlink" x="0px" y="0px"
	 viewBox="0 0 290.2 302" style="enable-background:new 0 0 290.2 302;" xml:space="preserve">
<style type="text/css">
	.st0{fill:#599636;}
	.st1{fill:#6CAC48;}
	.st2{fill:#C2BFBF;}
</style>
<g>
	<path class="st0" d="M144.2,6.7l7.7,14.5c1.8,2.7,3.6,5,5.9,7.3c6.5,6.4,12.6,13.3,18.1,20.5c13.1,17.2,22,36.3,28.3,57
		c3.8,12.6,5.9,25.6,6,38.8c0.6,39.2-12.8,72.8-39.9,100.8c-4.4,4.5-9.1,8.5-14.2,12.2c-2.7,0-4-2.1-5-4c-2-3.5-3.3-7.4-4-11.4
		c-0.9-4.7-1.6-9.5-1.3-14.4v-2.2C145.6,225.4,143.3,7.8,144.2,6.7L144.2,6.7z"/>
	<path class="st1" d="M144.2,6.2c-0.3-0.6-0.6-0.1-0.9,0.1c0.1,3.2-0.9,6-2.7,8.7c-1.9,2.7-4.4,4.7-6.9,6.9
		c-14,12.2-25.2,26.9-34,43.3C87.9,87.3,81.8,111.1,80.1,136c-0.8,9,2.8,40.8,5.7,49.9c7.7,24.4,21.7,44.7,39.7,62.4
		c4.4,4.3,9.1,8.2,14,12c1.4,0,1.6-1.3,1.9-2.2c0.6-2,1.1-4.1,1.4-6.2l3.2-23.7L144.2,6.2z"/>
	<path class="st2" d="M151.9,267.4c0.3-3.6,2.1-6.7,4-9.6c-1.9-0.8-3.3-2.3-4.4-4.1c-0.9-1.6-1.8-3.4-2.3-5.2
		c-2.2-6.7-2.7-13.6-3.3-20.4v-4.1c-0.8,0.6-0.9,6-0.9,6.8c-0.5,7.2-1.4,14.3-2.8,21.3c-0.5,2.8-0.8,5.7-2.6,8.2
		c0,0.3,0,0.6,0.1,1.1c2.8,8.4,3.6,16.9,4.1,25.6v3.2c0,3.8-0.1,3,3,4.3c1.3,0.5,2.7,0.6,4,1.6c0.9,0,1.1-0.8,1.1-1.4l-0.5-5.2
		v-14.5C151.1,272.3,151.6,269.8,151.9,267.4L151.9,267.4z"/>
</g>
</svg>
