<?xml version="1.0" encoding="utf-8"?>
<!-- Generator: Adobe Illustrator 25.3.1, SVG Export Plug-In . SVG Version: 6.00 Build 0)  -->
<svg version="1.1" id="Layer_1" xmlns="http://www.w3.org/2000/svg" xmlns:xlink="http://www.w3.org/1999/xlink" x="0px" y="0px"
	 viewBox="0 0 668.9 409.6" style="enable-background:new 0 0 668.9 409.6;" xml:space="preserve">
<style type="text/css">
	.st0{fill:#539E43;}
	.st1{fill:#333333;}
	.st2{fill:url(#a_4_);}
	.st3{filter:url(#Adobe_OpacityMaskFilter);}
	.st4{fill:#FFFFFF;}
	.st5{mask:url(#c_1_);}
	.st6{fill:none;}
	.st7{fill:url(#SVGID_1_);}
	.st8{filter:url(#Adobe_OpacityMaskFilter_1_);}
	.st9{mask:url(#c_2_);}
	.st10{fill-rule:evenodd;clip-rule:evenodd;fill:url(#SVGID_2_);}
	.st11{fill-rule:evenodd;clip-rule:evenodd;fill:url(#SVGID_3_);}
	.st12{fill-rule:evenodd;clip-rule:evenodd;fill:url(#SVGID_4_);}
	.st13{fill-rule:evenodd;clip-rule:evenodd;fill:url(#SVGID_5_);}
	.st14{fill-rule:evenodd;clip-rule:evenodd;fill:url(#SVGID_6_);}
</style>
<g>
	<path class="st0" d="M330.8,409.6c-2.3,0-4.4-0.6-6.4-1.7L304.4,396c-3-1.7-1.5-2.3-0.6-2.6c4.1-1.4,4.8-1.7,9.1-4.1
		c0.5-0.3,1.1-0.2,1.5,0.2l15.4,9.2c0.6,0.3,1.4,0.3,1.8,0l60.3-34.9c0.6-0.3,0.9-0.9,0.9-1.7v-69.7c0-0.8-0.3-1.4-0.9-1.7
		L331.6,256c-0.6-0.3-1.4-0.3-1.8,0l-60.3,34.8c-0.6,0.3-0.9,1.1-0.9,1.7v69.7c0,0.6,0.3,1.4,0.9,1.7l16.5,9.5
		c8.9,4.5,14.5-0.8,14.5-6v-68.8c0-0.9,0.8-1.8,1.8-1.8h7.7c0.9,0,1.8,0.8,1.8,1.8v68.8c0,11.9-6.5,18.9-17.8,18.9
		c-3.5,0-6.2,0-13.9-3.8l-15.9-9.1c-3.9-2.3-6.4-6.5-6.4-11v-69.7c0-4.5,2.4-8.8,6.4-11l60.3-34.9c3.8-2.1,8.9-2.1,12.7,0l60.3,34.9
		c3.9,2.3,6.4,6.5,6.4,11v69.7c0,4.5-2.4,8.8-6.4,11l-60.3,34.9C335.2,409.1,332.9,409.6,330.8,409.6L330.8,409.6z M349.4,361.7
		c-26.5,0-31.9-12.1-31.9-22.4c0-0.9,0.8-1.8,1.8-1.8h7.9c0.9,0,1.7,0.6,1.7,1.5c1.2,8,4.7,11.9,20.7,11.9c12.7,0,18.1-2.9,18.1-9.7
		c0-3.9-1.5-6.8-21.3-8.8c-16.5-1.7-26.8-5.3-26.8-18.4c0-12.2,10.3-19.5,27.5-19.5c19.4,0,28.9,6.7,30.1,21.2
		c0,0.5-0.2,0.9-0.5,1.4c-0.3,0.3-0.8,0.6-1.2,0.6h-7.9c-0.8,0-1.5-0.6-1.7-1.4c-1.8-8.3-6.5-11-18.9-11c-13.9,0-15.6,4.8-15.6,8.5
		c0,4.4,2,5.7,20.7,8.2c18.6,2.4,27.4,5.9,27.4,18.9C379.5,354.1,368.6,361.7,349.4,361.7z"/>
	<path class="st1" d="M143.6,137c0-2.7-1.5-5.3-3.9-6.7L75.6,93.4c-1.1-0.6-2.3-0.9-3.5-1.1h-0.6c-1.2,0-2.4,0.5-3.5,1.1L3.9,130.3
		C1.5,131.7,0,134.3,0,137l0.2,99.2c0,1.4,0.8,2.7,2,3.3c1.2,0.8,2.7,0.8,3.8,0L44,217.7c2.4-1.4,3.9-3.9,3.9-6.7v-46.4
		c0-2.7,1.5-5.3,3.9-6.7l16.2-9.4c1.2-0.8,2.6-1.1,3.9-1.1s2.7,0.3,3.8,1.1l16.2,9.4c2.4,1.4,3.9,3.9,3.9,6.7v46.4
		c0,2.7,1.5,5.3,3.9,6.7l38.1,21.8c1.2,0.8,2.7,0.8,3.9,0c1.2-0.6,2-2,2-3.3L143.6,137L143.6,137z M451.8,0.5
		c-1.2-0.6-2.7-0.6-3.8,0c-1.2,0.8-2,2-2,3.3v98.3c0,0.9-0.5,1.8-1.4,2.4c-0.9,0.5-1.8,0.5-2.7,0l-16-9.2c-2.4-1.4-5.3-1.4-7.7,0
		l-64.1,37c-2.4,1.4-3.9,3.9-3.9,6.7v73.9c0,2.7,1.5,5.3,3.9,6.7l64.1,37c2.4,1.4,5.3,1.4,7.7,0l64.1-37c2.4-1.4,3.9-3.9,3.9-6.7
		V28.6c0-2.9-1.5-5.4-3.9-6.8L451.8,0.5L451.8,0.5z M445.9,188.5c0,0.8-0.3,1.4-0.9,1.7l-21.9,12.7c-0.6,0.3-1.3,0.3-2,0l-21.9-12.7
		c-0.6-0.3-0.9-1.1-0.9-1.7v-25.4c0-0.8,0.3-1.4,0.9-1.7l21.9-12.7c0.6-0.3,1.3-0.3,2,0l21.9,12.7c0.6,0.3,0.9,1.1,0.9,1.7V188.5
		L445.9,188.5z M665.1,162.5c2.4-1.4,3.8-3.9,3.8-6.7v-18c0-2.7-1.5-5.3-3.8-6.7l-63.7-36.9c-2.4-1.4-5.3-1.4-7.7,0l-64.1,37
		c-2.4,1.4-3.9,3.9-3.9,6.7V212c0,2.7,1.5,5.3,3.9,6.7l63.7,36.3c2.4,1.4,5.3,1.4,7.6,0l38.6-21.5c1.2-0.6,2-2,2-3.3
		c0-1.4-0.8-2.7-2-3.3l-64.4-37c-1.2-0.8-2-2-2-3.3v-23.1c0-1.4,0.8-2.7,2-3.3l20.1-11.5c1.2-0.8,2.7-0.8,3.9,0l20.1,11.5
		c1.2,0.8,2,2,2,3.3v18.1c0,1.4,0.8,2.7,2,3.3c1.2,0.8,2.7,0.8,3.9,0L665.1,162.5L665.1,162.5z"/>
	<path class="st0" d="M596.6,159.1c0.5-0.3,1.1-0.3,1.5,0l12.2,7.1c0.5,0.3,0.8,0.8,0.8,1.4v14.2c0,0.6-0.3,1.1-0.8,1.4l-12.2,7.1
		c-0.5,0.3-1.1,0.3-1.5,0l-12.2-7.1c-0.5-0.3-0.8-0.8-0.8-1.4v-14.2c0-0.6,0.3-1.1,0.8-1.4L596.6,159.1z"/>
	<g transform="translate(134.068 70.501)">
		<g>
			
				<linearGradient id="a_4_" gradientUnits="userSpaceOnUse" x1="-2171.5933" y1="1237.2485" x2="-2171.7014" y2="1237.0548" gradientTransform="matrix(532.1024 0 0 -606.2871 1155648.625 750179.3125)">
				<stop  offset="0" style="stop-color:#41873F"/>
				<stop  offset="0.3288" style="stop-color:#418B3D"/>
				<stop  offset="0.6352" style="stop-color:#419637"/>
				<stop  offset="0.9319" style="stop-color:#3FA92D"/>
				<stop  offset="1" style="stop-color:#3FAE2A"/>
			</linearGradient>
			<path id="a_1_" class="st2" d="M116.8,24.2c-2.4-1.4-5.3-1.4-7.7,0L45.4,60.9c-2.4,1.4-3.8,3.9-3.8,6.7v73.6
				c0,2.7,1.5,5.3,3.8,6.7l63.7,36.7c2.4,1.4,5.3,1.4,7.7,0l63.7-36.7c2.4-1.4,3.8-3.9,3.8-6.7V67.5c0-2.7-1.5-5.3-3.8-6.7
				L116.8,24.2z"/>
		</g>
		<defs>
			<filter id="Adobe_OpacityMaskFilter" filterUnits="userSpaceOnUse" x="41" y="23.1" width="143.6" height="162.7">
				<feColorMatrix  type="matrix" values="1 0 0 0 0  0 1 0 0 0  0 0 1 0 0  0 0 0 1 0"/>
			</filter>
		</defs>
		<mask maskUnits="userSpaceOnUse" x="41" y="23.1" width="143.6" height="162.7" id="c_1_">
			<g class="st3">
				<path id="a_2_" class="st4" d="M116.8,24.2c-2.4-1.4-5.3-1.4-7.7,0L45.4,60.9c-2.4,1.4-3.8,3.9-3.8,6.7v73.6
					c0,2.7,1.5,5.3,3.8,6.7l63.7,36.7c2.4,1.4,5.3,1.4,7.7,0l63.7-36.7c2.4-1.4,3.8-3.9,3.8-6.7V67.5c0-2.7-1.5-5.3-3.8-6.7
					L116.8,24.2z"/>
			</g>
		</mask>
		<g class="st5">
			<path class="st6" d="M108.9,24.2L45.1,60.9c-2.4,1.4-4.1,3.9-4.1,6.7v73.6c0,1.8,0.8,3.5,2,4.8l71.7-122.8
				C112.8,22.9,110.7,23.1,108.9,24.2L108.9,24.2z M115.1,185.3c0.6-0.2,1.2-0.5,1.8-0.8l63.8-36.7c2.4-1.4,3.9-3.9,3.9-6.7V67.5
				c0-2-0.9-3.9-2.3-5.3L115.1,185.3L115.1,185.3z"/>
			
				<linearGradient id="SVGID_1_" gradientUnits="userSpaceOnUse" x1="-2171.5969" y1="1237.149" x2="-2171.2864" y2="1237.3459" gradientTransform="matrix(519.687 0 0 -606.0386 1128653.875 749873.0625)">
				<stop  offset="0.1376" style="stop-color:#41873F"/>
				<stop  offset="0.4032" style="stop-color:#54A044"/>
				<stop  offset="0.7136" style="stop-color:#66B848"/>
				<stop  offset="0.9081" style="stop-color:#6CC04A"/>
			</linearGradient>
			<path class="st7" d="M180.6,60.9l-64-36.7c-0.6-0.3-1.3-0.6-2-0.8L43,146.2c0.6,0.7,1.3,1.3,2.1,1.8l64,36.7
				c1.8,1.1,3.9,1.4,5.9,0.8l67.3-123.1C181.8,61.8,181.2,61.3,180.6,60.9L180.6,60.9z"/>
		</g>
		<defs>
			<filter id="Adobe_OpacityMaskFilter_1_" filterUnits="userSpaceOnUse" x="41" y="10.7" width="145.6" height="177.1">
				<feColorMatrix  type="matrix" values="1 0 0 0 0  0 1 0 0 0  0 0 1 0 0  0 0 0 1 0"/>
			</filter>
		</defs>
		<mask maskUnits="userSpaceOnUse" x="41" y="10.7" width="145.6" height="177.1" id="c_2_">
			<g class="st8">
				<path id="a_3_" class="st4" d="M116.8,24.2c-2.4-1.4-5.3-1.4-7.7,0L45.4,60.9c-2.4,1.4-3.8,3.9-3.8,6.7v73.6
					c0,2.7,1.5,5.3,3.8,6.7l63.7,36.7c2.4,1.4,5.3,1.4,7.7,0l63.7-36.7c2.4-1.4,3.8-3.9,3.8-6.7V67.5c0-2.7-1.5-5.3-3.8-6.7
					L116.8,24.2z"/>
			</g>
		</mask>
		<g class="st9">
			<path class="st6" d="M184.7,141.2V67.5c0-2.7-1.7-5.3-4.1-6.7l-64-36.7c-0.7-0.5-1.6-0.8-2.4-0.9l70,119.6
				C184.5,142.4,184.7,141.8,184.7,141.2L184.7,141.2z M45.1,60.9c-2.4,1.4-4.1,3.9-4.1,6.7v73.6c0,2.7,1.8,5.3,4.1,6.7l64,36.7
				c1.5,0.9,3.2,1.2,5,0.9L45.6,60.7L45.1,60.9L45.1,60.9z"/>
			
				<linearGradient id="SVGID_2_" gradientUnits="userSpaceOnUse" x1="-1879.8683" y1="1501.2905" x2="-1853.7643" y2="1501.2905" gradientTransform="matrix(4.5111 0 0 -1.6941 8532.9961 2554.2727)">
				<stop  offset="9.192000e-02" style="stop-color:#6CC04A"/>
				<stop  offset="0.2864" style="stop-color:#66B848"/>
				<stop  offset="0.5968" style="stop-color:#54A044"/>
				<stop  offset="0.8624" style="stop-color:#41873F"/>
			</linearGradient>
			<path class="st10" d="M106.9,10.7l-0.9,0.5h1.2L106.9,10.7z"/>
			
				<linearGradient id="SVGID_3_" gradientUnits="userSpaceOnUse" x1="-2171.7341" y1="1237.1609" x2="-2171.4504" y2="1237.1609" gradientTransform="matrix(519.1255 0 0 -606.527 1127442 750475.8125)">
				<stop  offset="9.192000e-02" style="stop-color:#6CC04A"/>
				<stop  offset="0.2864" style="stop-color:#66B848"/>
				<stop  offset="0.5968" style="stop-color:#54A044"/>
				<stop  offset="0.8624" style="stop-color:#41873F"/>
			</linearGradient>
			<path class="st11" d="M180.7,147.8c1.8-1.1,3.2-2.9,3.8-4.8L114.4,23.2c-1.8-0.3-3.8-0.2-5.4,0.9L45.4,60.7l68.5,124.9
				c1-0.2,2-0.5,2.9-0.9L180.7,147.8L180.7,147.8z"/>
			
				<linearGradient id="SVGID_4_" gradientUnits="userSpaceOnUse" x1="-1513.365" y1="1443.494" x2="-1487.2609" y2="1443.494" gradientTransform="matrix(1.6941 0 0 -3.9497 2705.8884 5847.7095)">
				<stop  offset="9.192000e-02" style="stop-color:#6CC04A"/>
				<stop  offset="0.2864" style="stop-color:#66B848"/>
				<stop  offset="0.5968" style="stop-color:#54A044"/>
				<stop  offset="0.8624" style="stop-color:#41873F"/>
			</linearGradient>
			<path class="st12" d="M186.6,146.6l-0.5-0.8v1.1L186.6,146.6L186.6,146.6z"/>
			
				<linearGradient id="SVGID_5_" gradientUnits="userSpaceOnUse" x1="-2169.9155" y1="1241.1974" x2="-2169.3672" y2="1241.1974" gradientTransform="matrix(268.5875 0 0 -167.5852 582851.4375 208171.5938)">
				<stop  offset="9.192000e-02" style="stop-color:#6CC04A"/>
				<stop  offset="0.2864" style="stop-color:#66B848"/>
				<stop  offset="0.5968" style="stop-color:#54A044"/>
				<stop  offset="0.8624" style="stop-color:#41873F"/>
			</linearGradient>
			<path class="st13" d="M180.7,147.8l-63.8,36.7c-0.9,0.5-1.9,0.8-2.9,0.9l1.2,2.3l70.8-41v-0.9l-1.8-3
				C183.9,145,182.5,146.8,180.7,147.8L180.7,147.8z"/>
			
				<linearGradient id="SVGID_6_" gradientUnits="userSpaceOnUse" x1="-2169.2878" y1="1241.8971" x2="-2169.626" y2="1240.7913" gradientTransform="matrix(268.5875 0 0 -167.5852 582851.4375 208171.5938)">
				<stop  offset="0" style="stop-color:#41873F"/>
				<stop  offset="0.3288" style="stop-color:#418B3D"/>
				<stop  offset="0.6352" style="stop-color:#419637"/>
				<stop  offset="0.9319" style="stop-color:#3FA92D"/>
				<stop  offset="1" style="stop-color:#3FAE2A"/>
			</linearGradient>
			<path class="st14" d="M180.7,147.8l-63.8,36.7c-0.9,0.5-1.9,0.8-2.9,0.9l1.2,2.3l70.8-41v-0.9l-1.8-3
				C183.9,145,182.5,146.8,180.7,147.8L180.7,147.8z"/>
		</g>
	</g>
</g>
</svg>
