<?xml version="1.0" encoding="utf-8"?>
<!-- Generator: Adobe Illustrator 25.3.1, SVG Export Plug-In . SVG Version: 6.00 Build 0)  -->
<svg version="1.1" id="Layer_1" xmlns="http://www.w3.org/2000/svg" xmlns:xlink="http://www.w3.org/1999/xlink" x="0px" y="0px"
	 viewBox="0 0 393.9 409.6" style="enable-background:new 0 0 393.9 409.6;" xml:space="preserve">
<style type="text/css">
	.st0{fill:#336791;}
	.st1{fill:#FFFFFF;}
</style>
<g>
	<path d="M392.9,246.7c-2.4-7.2-8.6-12.2-16.6-13.4c-3.8-0.6-8.1-0.3-13.2,0.7c-8.9,1.8-15.6,2.5-20.4,2.7
		c18.3-30.8,33.1-66,41.7-99.1c13.8-53.5,6.4-77.9-2.2-88.9C359.3,19.6,326,3.9,285.8,3.5c-21.4-0.3-40.3,4-50.1,7
		c-9.1-1.6-19-2.5-29.3-2.7c-19.3-0.3-36.4,3.9-51,12.6c-8.1-2.7-21.1-6.6-36-9C84.1,5.5,55.7,10,34.9,24.7
		C9.8,42.5-1.9,73.4,0.3,116.5c0.7,13.7,8.3,55.3,20.4,94.8c6.9,22.7,14.3,41.6,22,56c10.8,20.5,22.4,32.6,35.5,37
		c7.3,2.4,20.6,4.1,34.5-7.5c1.8,2.1,4.1,4.3,7.3,6.2c4,2.5,8.8,4.6,13.7,5.8c17.5,4.4,33.9,3.3,47.9-2.9c0.1,2.5,0.2,4.9,0.2,6.9
		c0.1,3.3,0.2,6.6,0.3,9.6c0.8,20.6,2.2,36.7,6.4,47.9c0.2,0.6,0.5,1.6,0.9,2.6c2.1,6.4,5.5,17,14.4,25.3
		c9.1,8.6,20.2,11.3,30.3,11.3c5.1,0,9.9-0.7,14.2-1.6c15.1-3.2,32.4-8.2,44.8-25.9c11.8-16.8,17.5-42,18.5-81.7
		c0.1-1.1,0.3-2.2,0.4-3.2l0.2-2.1l2.8,0.2l0.7,0c15.4,0.7,34.3-2.6,45.9-8C370.5,283.1,399.8,267.7,392.9,246.7"/>
	<path class="st0" d="M366.5,250.8c-45.9,9.5-49-6.1-49-6.1c48.4-71.9,68.7-163.1,51.2-185.4C321-1.6,238.5,27.2,237.1,28l-0.4,0.1
		c-9.1-1.9-19.2-3-30.6-3.2c-20.8-0.3-36.5,5.4-48.5,14.5c0,0-147.2-60.6-140.4,76.3C18.7,144.7,59,336,107.1,278.2
		c17.6-21.1,34.5-39,34.5-39c8.4,5.6,18.5,8.5,29.1,7.4l0.8-0.7c-0.3,2.6-0.1,5.2,0.3,8.2c-12.4,13.8-8.7,16.3-33.5,21.4
		c-25,5.2-10.3,14.3-0.7,16.8c11.6,2.9,38.6,7,56.8-18.4l-0.7,2.9c4.8,3.9,8.3,25.3,7.7,44.7c-0.6,19.4-1,32.7,2.9,43.1
		c3.8,10.4,7.6,33.8,40.2,26.8c27.2-5.8,41.3-20.9,43.2-46.1c1.4-17.9,4.5-15.3,4.7-31.3l2.5-7.6c2.9-24.3,0.5-32.1,17.2-28.5
		l4.1,0.4c12.3,0.6,28.5-2,37.9-6.4C374.5,262.5,386.6,246.7,366.5,250.8L366.5,250.8"/>
	<path class="st1" d="M166.3,128.6c-4.1-0.6-7.9,0-9.8,1.4c-1.1,0.8-1.4,1.7-1.5,2.4c-0.2,1.7,1,3.6,1.7,4.6
		c2.1,2.8,5.1,4.6,8.1,5.1c0.4,0.1,0.9,0.1,1.3,0.1c5,0,9.6-3.9,10-6.8C176.6,131.8,171.3,129.4,166.3,128.6 M303.2,128.8
		c-0.4-2.8-5.4-3.6-10.2-3c-4.8,0.7-9.4,2.8-9,5.6c0.3,2.2,4.3,6,9,6c0.4,0,0.8,0,1.2-0.1c3.1-0.4,5.4-2.4,6.5-3.6
		C302.4,132,303.4,130,303.2,128.8"/>
	<path class="st1" d="M381.8,249.7c-1.7-5.3-7.4-7-16.7-5.1c-27.8,5.7-37.7,1.8-41-0.6c21.6-32.9,39.3-72.6,48.9-109.7
		c4.5-17.6,7-33.9,7.2-47.2c0.2-14.6-2.3-25.3-7.4-31.9c-20.7-26.4-51-40.6-87.7-41c-25.2-0.3-46.6,6.2-50.7,8
		c-8.7-2.2-18.2-3.5-28.5-3.7c-19-0.3-35.3,4.2-48.9,13.5c-5.9-2.2-21.1-7.4-39.7-10.4c-32.2-5.2-57.8-1.3-76,11.7
		c-21.8,15.4-31.8,43-29.9,82c0.7,13.1,8.1,53.5,19.9,92.1c15.5,50.8,32.4,79.6,50.1,85.6c2.1,0.7,4.5,1.2,7.1,1.2
		c6.5,0,14.4-2.9,22.7-12.8c10.1-12.1,20.5-23.9,31.3-35.4c7,3.7,14.6,5.8,22.5,6c0,0.2,0,0.4,0.1,0.6c-1.3,1.6-2.7,3.2-4,4.9
		c-5.4,6.9-6.6,8.3-24.1,11.9c-5,1-18.2,3.7-18.4,13c-0.2,10.1,15.6,14.4,17.4,14.8c6.3,1.6,12.3,2.3,18.1,2.3
		c14,0,26.4-4.6,36.3-13.5c-0.3,36.1,1.2,71.6,5.5,82.5c3.5,8.9,12.2,30.5,39.6,30.5c4,0,8.4-0.5,13.3-1.5
		c28.6-6.1,41-18.8,45.8-46.6c2.6-14.9,7-50.4,9-69.5c4.4,1.4,10,2,16.1,2c12.7,0,27.4-2.7,36.5-7
		C366.5,271.7,385.2,260,381.8,249.7L381.8,249.7z M313.8,121c-0.1,5.6-0.9,10.7-1.7,16.1c-0.9,5.7-1.8,11.7-2,18.9
		c-0.2,7,0.6,14.3,1.5,21.3c1.7,14.2,3.5,28.9-3.3,43.3c-1.1-2-2.1-4.1-3-6.2c-0.8-2-2.7-5.3-5.2-9.9c-9.9-17.7-33-59.2-21.2-76.1
		C282.4,123.4,291.3,118.2,313.8,121L313.8,121z M286.5,25.7c32.9,0.7,58.9,13,77.4,36.6c14.1,18.1-1.4,100.3-46.5,171.2
		c-0.5-0.6-0.9-1.2-1.4-1.7l-0.6-0.7c11.6-19.2,9.4-38.3,7.3-55.1c-0.8-6.9-1.6-13.5-1.4-19.6c0.2-6.5,1.1-12.1,1.9-17.5
		c1-6.7,2.1-13.5,1.8-21.7c0.2-0.9,0.3-1.9,0.2-3.1c-0.7-7.8-9.6-31.1-27.7-52.2c-9.9-11.5-24.4-24.4-44.1-33.1
		C261.9,27,273.5,25.4,286.5,25.7L286.5,25.7z M102.4,274c-9.1,10.9-15.4,8.8-17.5,8.2c-13.5-4.5-29.1-33-42.9-78.1
		c-11.9-39.1-18.9-78.3-19.4-89.3c-1.7-34.8,6.7-59.1,25.1-72.1c29.9-21.2,79.1-8.5,98.9-2.1c-0.3,0.3-0.6,0.5-0.9,0.8
		c-32.4,32.8-31.7,88.8-31.6,92.2c0,1.3,0.1,3.2,0.3,5.8c0.6,9.4,1.6,26.9-1.2,46.8c-2.6,18.4,3.1,36.5,15.6,49.5
		c1.3,1.3,2.6,2.6,4,3.8C127.3,245.4,115.3,258.6,102.4,274L102.4,274z M137.1,227.8c-10.1-10.5-14.6-25.1-12.5-40.1
		c2.9-21,1.8-39.2,1.3-49c-0.1-1.4-0.2-2.6-0.2-3.5c4.7-4.2,26.7-16,42.4-12.4c7.1,1.6,11.5,6.5,13.3,14.9
		c9.4,43.4,1.2,61.4-5.3,75.9c-1.3,3-2.6,5.8-3.7,8.7l-0.8,2.3c-2.1,5.7-4.1,11-5.3,16.1C155.4,240.6,145,236,137.1,227.8
		L137.1,227.8z M138.7,286.2c-3.1-0.8-5.9-2.1-7.6-3.3c1.4-0.6,3.8-1.5,8.1-2.4c20.6-4.2,23.8-7.2,30.7-16c1.6-2,3.4-4.3,5.9-7.1
		l0,0c3.7-4.2,5.4-3.5,8.5-2.2c2.5,1,4.9,4.2,5.9,7.6c0.5,1.6,1,4.7-0.7,7.1C175,290.3,153.9,290,138.7,286.2z M246.4,386.4
		c-25.2,5.4-34.1-7.4-40-22.1c-3.8-9.5-5.7-52.2-4.3-99.4c0-0.6-0.1-1.2-0.2-1.8c-0.2-1.1-0.4-2.2-0.7-3.3c-2-6.9-6.8-12.6-12.5-15
		c-2.3-0.9-6.5-2.7-11.5-1.4c1.1-4.4,2.9-9.4,5-14.8l0.8-2.3c1-2.6,2.2-5.2,3.4-8c6.8-15.2,16.2-36,6-83
		c-3.8-17.6-16.5-26.2-35.8-24.2c-11.6,1.2-22.1,5.9-27.4,8.5c-1.1,0.6-2.2,1.1-3.1,1.7c1.5-17.7,7-50.9,27.8-71.9
		C167,36.1,184.4,29.6,205.7,30c41.9,0.7,68.7,22.2,83.9,40.1c13.1,15.4,20.1,31,22.9,39.4c-21.2-2.2-35.6,2-43,12.5
		c-15.9,22.7,8.7,66.9,20.5,88.1c2.2,3.9,4,7.2,4.6,8.7c3.9,9.3,8.8,15.6,12.5,20.1c1.1,1.4,2.2,2.7,3,3.9
		c-6.4,1.9-18,6.1-16.9,27.5c-0.8,10.7-6.9,61-9.9,78.8C279.3,372.5,270.6,381.2,246.4,386.4L246.4,386.4z M351.4,266.2
		c-6.6,3-17.6,5.3-28,5.8c-11.5,0.5-17.4-1.3-18.8-2.4c-0.6-13.3,4.3-14.7,9.6-16.2c0.8-0.2,1.6-0.5,2.4-0.7c0.5,0.4,1,0.8,1.6,1.2
		c9.3,6.1,25.8,6.8,49.2,2l0.3-0.1C364.5,258.7,359.1,262.7,351.4,266.2L351.4,266.2z"/>
</g>
</svg>
