<?xml version="1.0" encoding="utf-8"?>
<!-- Generator: Adobe Illustrator 25.3.1, SVG Export Plug-In . SVG Version: 6.00 Build 0)  -->
<svg version="1.1" id="Layer_1" xmlns="http://www.w3.org/2000/svg" xmlns:xlink="http://www.w3.org/1999/xlink" x="0px" y="0px"
	 viewBox="0 0 459.5 409.6" style="enable-background:new 0 0 459.5 409.6;" xml:space="preserve">
<style type="text/css">
	.st0{fill:#61DAFB;}
</style>
<g>
	<path class="st0" d="M459.9,204.8c0-30.5-38.2-59.3-96.7-77.3C376.8,68,370.8,20.5,344.3,5.3c-6.1-3.6-13.2-5.3-21-5.3V21
		c4.3,0,7.8,0.8,10.7,2.4c12.8,7.3,18.3,35.2,14,71c-1,8.8-2.7,18.1-4.8,27.6c-18.4-4.5-38.4-8-59.5-10.2
		c-12.7-17.3-25.8-33.1-39-46.9c30.6-28.4,59.3-44,78.8-44V0c-25.8,0-59.5,18.4-93.7,50.3c-34.1-31.7-67.9-49.9-93.7-49.9v20.9
		c19.4,0,48.2,15.5,78.8,43.7c-13.1,13.8-26.3,29.4-38.7,46.8c-21.2,2.3-41.3,5.7-59.6,10.3c-2.2-9.4-3.8-18.5-4.9-27.2
		c-4.4-35.8,1-63.7,13.7-71.1c2.8-1.7,6.5-2.4,10.8-2.4V0.5c-7.9,0-15,1.7-21.2,5.3c-26.3,15.2-32.3,62.5-18.7,122
		C38,145.7,0,174.5,0,204.8c0,30.5,38.2,59.3,96.7,77.3c-13.5,59.6-7.5,107.1,18.9,122.3c6.1,3.6,13.2,5.3,21.1,5.3
		c25.8,0,59.5-18.4,93.7-50.3c34.1,31.7,67.9,49.9,93.7,49.9c7.9,0,15-1.7,21.2-5.3c26.3-15.2,32.3-62.5,18.7-122
		C422,264.1,459.9,235.2,459.9,204.8L459.9,204.8z M337.9,142.3c-3.5,12.1-7.8,24.6-12.7,37c-3.8-7.5-7.9-15-12.3-22.5
		c-4.3-7.5-8.9-14.8-13.5-21.9C312.8,136.9,325.6,139.3,337.9,142.3L337.9,142.3z M294.9,242.2c-7.3,12.7-14.8,24.7-22.6,35.8
		c-14,1.2-28.1,1.9-42.4,1.9c-14.2,0-28.3-0.7-42.2-1.8c-7.8-11.2-15.4-23.1-22.7-35.6c-7.1-12.3-13.6-24.8-19.5-37.3
		c5.8-12.6,12.4-25.1,19.4-37.4c7.3-12.7,14.8-24.7,22.6-35.8c14-1.2,28.1-1.9,42.4-1.9c14.2,0,28.3,0.7,42.2,1.8
		c7.8,11.2,15.4,23.1,22.7,35.6c7.1,12.3,13.6,24.8,19.5,37.3C308.4,217.3,302,229.9,294.9,242.2L294.9,242.2z M325.2,230
		c5.1,12.6,9.4,25.1,12.9,37.3c-12.3,3-25.2,5.5-38.6,7.5c4.6-7.2,9.2-14.6,13.5-22.2C317.3,245.1,321.4,237.5,325.2,230L325.2,230z
		 M230.2,330c-8.7-9-17.4-19-26.1-30c8.4,0.4,17.1,0.7,25.8,0.7c8.8,0,17.5-0.2,26.1-0.7C247.5,311,238.8,321,230.2,330z
		 M160.4,274.8c-13.3-2-26.2-4.4-38.4-7.4c3.5-12.1,7.8-24.6,12.7-37c3.8,7.5,7.9,15,12.3,22.5C151.3,260.3,155.8,267.7,160.4,274.8
		z M229.7,79.7c8.7,9,17.4,19,26.1,30c-8.4-0.4-17.1-0.7-25.8-0.7c-8.8,0-17.5,0.2-26.1,0.7C212.3,98.7,221.1,88.7,229.7,79.7z
		 M160.3,134.9c-4.6,7.2-9.2,14.6-13.5,22.2c-4.3,7.5-8.3,15-12.2,22.5c-5.1-12.6-9.4-25.1-12.9-37.3
		C134,139.4,146.9,136.9,160.3,134.9L160.3,134.9z M75.5,252.3c-33.2-14.2-54.7-32.7-54.7-47.4c0-14.7,21.5-33.4,54.7-47.4
		c8.1-3.5,16.9-6.6,26-9.5c5.3,18.4,12.4,37.5,21.1,57.1c-8.6,19.5-15.6,38.5-20.8,56.8C92.4,258.9,83.6,255.8,75.5,252.3
		L75.5,252.3z M125.9,386.3c-12.8-7.3-18.3-35.2-14-71c1-8.8,2.7-18.1,4.8-27.6c18.4,4.5,38.4,8,59.5,10.2
		c12.7,17.3,25.8,33.1,39,46.9c-30.6,28.4-59.3,44-78.8,44C132.3,388.7,128.7,387.8,125.9,386.3L125.9,386.3z M348.3,314.8
		c4.4,35.8-1,63.7-13.7,71.1c-2.8,1.7-6.5,2.4-10.8,2.4c-19.4,0-48.2-15.5-78.8-43.7c13.1-13.8,26.3-29.4,38.7-46.8
		c21.2-2.2,41.3-5.7,59.6-10.3C345.6,297,347.3,306.1,348.3,314.8z M384.4,252.3c-8.1,3.5-16.9,6.6-26,9.5
		c-5.3-18.4-12.4-37.5-21.1-57.1c8.6-19.5,15.6-38.5,20.8-56.8c9.3,2.9,18.1,6.1,26.3,9.6c33.2,14.2,54.7,32.7,54.7,47.4
		C439,219.6,417.6,238.2,384.4,252.3L384.4,252.3z"/>
	<circle class="st0" cx="229.9" cy="204.8" r="42.8"/>
</g>
</svg>
