<?xml version="1.0" encoding="utf-8"?>
<!-- Generator: Adobe Illustrator 25.3.1, SVG Export Plug-In . SVG Version: 6.00 Build 0)  -->
<svg version="1.1" id="Layer_1" xmlns="http://www.w3.org/2000/svg" xmlns:xlink="http://www.w3.org/1999/xlink" x="0px" y="0px"
	 viewBox="0 0 431.4 409.6" style="enable-background:new 0 0 431.4 409.6;" xml:space="preserve">
<style type="text/css">
	.st0{fill:#764ABC;}
</style>
<path class="st0" d="M298.9,286.1c15.9-1.6,28-15.4,27.4-31.8c-0.5-16.5-14.3-29.6-30.7-29.6h-1.1c-17,0.5-30.2,14.8-29.6,31.8
	c0.5,8.2,3.8,15.4,8.8,20.3c-18.7,36.8-47.2,63.7-90,86.2c-29.1,15.4-59.3,20.9-89.5,17c-24.7-3.3-43.9-14.3-56-32.4
	c-17.6-26.9-19.2-56-4.4-85.1c10.4-20.9,26.9-36.2,37.3-43.9c-2.2-7.1-5.5-19.2-7.1-28c-79.6,57.6-71.4,135.6-47.2,172.4
	c18.1,27.4,54.9,44.5,95.5,44.5c11,0,22-1.1,32.9-3.8C215.4,389.8,268.7,348.1,298.9,286.1L298.9,286.1z M395.5,218
	c-41.7-48.9-103.2-75.8-173.5-75.8h-8.8c-4.9-9.9-15.4-16.5-26.9-16.5h-1.1c-17,0.5-30.2,14.8-29.6,31.8
	c0.5,16.5,14.3,29.6,30.7,29.6h1.1c12.1-0.5,22.5-8.2,26.9-18.7h9.9c41.7,0,81.2,12.1,116.9,35.7c27.4,18.1,47.2,41.7,58.2,70.3
	c9.3,23.1,8.8,45.6-1.1,64.8c-15.4,29.1-41.2,45-75.2,45c-22,0-42.8-6.6-53.8-11.5c-6,5.5-17,14.3-24.7,19.8
	c23.6,11,47.8,17,70.8,17c52.7,0,91.7-29.1,106.5-58.2C437.8,319.6,436.7,264.7,395.5,218L395.5,218z M116.6,295.4
	c0.5,16.5,14.3,29.6,30.7,29.6h1.1c17-0.5,30.2-14.8,29.6-31.8c-0.5-16.5-14.3-29.6-30.7-29.6h-1.1c-1.1,0-2.7,0-3.8,0.5
	c-22.5-37.3-31.8-77.9-28.5-121.9c2.2-32.9,13.2-61.5,32.4-85.1c15.9-20.3,46.7-30.2,67.5-30.7c58.2-1.1,82.9,71.4,84.5,100.5
	c7.1,1.6,19.2,5.5,27.4,8.2c-6.6-88.9-61.5-135-114.2-135c-49.4,0-95,35.7-113.1,88.4c-25.2,70.3-8.8,137.8,22,191
	C117.7,283.3,116.1,289.4,116.6,295.4L116.6,295.4z"/>
</svg>
